PathFileType	4	(X/Y/Z)	C:/Users/opensim2020/Desktop/walking_exp_matlab/subject06_cal10_run.trc	
DataRate	CameraRate	NumFrames	NumMarkers	Units	OrigDataRate	OrigDataStartFrame	OrigNumFrames	
100.00	100.00	8	49	mm	100.00	198	118	
Frame#	Time	LKNE			RTIB			RFRM			RWRA			LTHI			RKNE			RELB			RFHD			LWRA			RUPA			STRN			RASI			CLAV			RSHO			LASI			RTHI			RBHD			LBHD			C7			RWRB			RFIN			RTOE			LSHO			RBAK			LTIB			RANK			LFIN			LANK			RHEE			T10			LHEE			LTOE			LFHD			LPSI			RPSI			LUPA			LELB			LFRM			LWRB			*39			*40			*41			*42			*43			*44			*45			*46			*47			*48			
		X1	Y1	Z1	X2	Y2	Z2	X3	Y3	Z3	X4	Y4	Z4	X5	Y5	Z5	X6	Y6	Z6	X7	Y7	Z7	X8	Y8	Z8	X9	Y9	Z9	X10	Y10	Z10	X11	Y11	Z11	X12	Y12	Z12	X13	Y13	Z13	X14	Y14	Z14	X15	Y15	Z15	X16	Y16	Z16	X17	Y17	Z17	X18	Y18	Z18	X19	Y19	Z19	X20	Y20	Z20	X21	Y21	Z21	X22	Y22	Z22	X23	Y23	Z23	X24	Y24	Z24	X25	Y25	Z25	X26	Y26	Z26	X27	Y27	Z27	X28	Y28	Z28	X29	Y29	Z29	X30	Y30	Z30	X31	Y31	Z31	X32	Y32	Z32	X33	Y33	Z33	X34	Y34	Z34	X35	Y35	Z35	X36	Y36	Z36	X37	Y37	Z37	X38	Y38	Z38	X39	Y39	Z39	X40	Y40	Z40	X41	Y41	Z41	X42	Y42	Z42	X43	Y43	Z43	X44	Y44	Z44	X45	Y45	Z45	X46	Y46	Z46	X47	Y47	Z47	X48	Y48	Z48	X49	Y49	Z49	

30	0.290	99.48392	-1073.22461	478.59109	327.08197	-874.89911	280.05017	508.66254	-1069.68640	1092.88684	431.68893	-953.02997	1053.37524	72.33708	-1038.72803	640.47522	346.82681	-865.09045	546.99860	527.26489	-1132.62048	1181.10498	355.09299	-827.95709	1637.32263	125.59780	-835.38947	1194.41150	498.46210	-1085.32227	1282.93457	245.43347	-860.92767	1185.64038	336.01813	-932.14600	968.34998	263.55392	-872.97162	1366.11194	409.10483	-945.13708	1402.81226	122.62145	-917.35663	953.52728	382.79749	-917.65631	658.20062	339.72595	-962.62909	1598.61255	211.17641	-953.29504	1610.40540	250.31190	-968.57379	1458.89001	465.71481	-978.14026	1002.07440	455.80267	-898.16180	994.48859	243.36928	-734.53625	32.46962	107.07887	-893.52087	1428.77454	289.23016	-1073.03394	1310.11108	107.32771	-1288.55322	342.46487	266.60660	-884.66412	100.48933	168.77524	-758.48938	1166.96387	142.59282	-1429.41309	247.36542	224.63118	-925.63171	87.77269	212.35762	-1058.20117	1151.31494	194.29315	-1460.94849	264.59268	122.83742	-1375.58752	114.96461	224.31871	-816.90955	1654.71631	132.30444	-1061.67004	1009.42188	298.19910	-1072.87964	1013.17578	-17.90845	-932.33063	1277.67102	-70.28728	-967.39087	1187.50696	15.27055	-878.71313	1140.81226	113.87515	-817.03540	1127.67749							278.03696	-918.57941	1698.14819																					 
31	0.300	98.60088	-1016.28723	468.32571	324.90335	-859.70551	271.34247	511.42331	-1020.97882	1077.73901	431.39798	-905.17847	1042.00134	71.98753	-989.42633	631.16095	346.14722	-833.13721	538.68378	531.22772	-1085.80286	1164.40576	356.37357	-795.74384	1631.63403	124.41206	-803.37347	1181.55920	502.80670	-1042.91968	1267.52954	246.85667	-823.52753	1180.04358	337.07132	-897.74005	962.76703	263.75781	-837.93396	1359.41895	410.44568	-909.02173	1394.14001	123.54310	-880.58588	946.76123	379.87909	-882.62042	652.44586	341.36713	-929.86755	1591.17334	212.79965	-921.23840	1603.27136	252.13315	-934.37158	1451.62671	465.51526	-928.18439	989.76147	454.25009	-848.41010	984.43420	243.99252	-736.28369	32.30924	107.54048	-861.16956	1422.84778	291.36942	-1037.69702	1302.26794	106.68214	-1232.55566	337.25854	265.03903	-885.49133	93.18732	165.22298	-726.36719	1151.17944	140.66876	-1374.75061	244.89249	223.97928	-928.71039	81.07027	212.18456	-1022.74396	1144.63306	193.15025	-1406.84216	260.18466	115.85608	-1317.73547	116.42751	225.52322	-785.38989	1649.27234	131.32086	-1025.33643	1002.14172	297.42200	-1039.32312	1006.48291	-17.19602	-903.23828	1272.86963	-68.18039	-939.62396	1182.84290	13.82676	-850.44482	1132.13794	110.50424	-786.84955	1114.83728							279.59805	-887.39069	1691.31934																					 
32	0.310	97.81091	-958.54205	458.54373	324.74713	-845.08777	264.39294	513.88342	-971.45648	1061.98157	430.50525	-856.93317	1030.22534	71.42407	-939.58643	621.77600	344.84698	-800.45300	529.62939	535.15271	-1037.78076	1147.01208	357.22110	-763.33252	1625.47693	122.19678	-771.73370	1167.21313	507.14938	-999.68860	1251.04932	246.12611	-788.50507	1173.29089	338.56146	-863.69751	955.70789	263.94855	-802.69244	1352.15918	412.04578	-872.44037	1384.65466	125.00175	-844.26935	939.13220	380.24268	-848.93634	644.10516	342.73898	-897.03986	1583.20996	214.14899	-889.07300	1595.62891	253.79265	-900.15302	1443.63330	464.91458	-877.38971	977.27386	452.17303	-798.19409	974.25116	242.27141	-737.77167	32.03781	107.57076	-828.94757	1416.04614	293.82849	-1002.53906	1293.19751	105.37117	-1174.60681	332.83215	264.39484	-888.17523	89.81583	160.40393	-694.66663	1133.77917	137.93019	-1317.56079	242.12236	223.92981	-931.62085	77.40860	212.45612	-987.17682	1136.50476	190.51866	-1350.65991	256.10809	111.20322	-1255.22131	118.21519	226.45781	-753.70209	1643.48022	130.55389	-989.55005	994.28149	297.03983	-1005.26904	998.88074	-16.74107	-875.06683	1267.12622	-66.66715	-913.03607	1177.68762	11.42246	-822.81506	1122.70068	106.00063	-757.28009	1100.54871							280.94583	-856.12018	1683.97351																					 
33	0.320	97.31996	-899.55579	449.87033	325.14420	-830.10339	259.50800	515.40900	-921.13409	1046.03394	428.81198	-808.24646	1018.61023	70.91177	-889.34906	612.78735	342.72992	-769.11041	519.34753	538.85321	-988.96063	1128.88623	357.93619	-730.69946	1619.18555	118.90459	-740.64636	1151.55762	511.42215	-955.67688	1233.94727	245.69797	-753.08514	1164.59998	340.46298	-830.14905	947.38647	264.09897	-767.21716	1344.40540	414.06274	-835.37988	1374.88293	126.58382	-808.57977	931.08051	380.53973	-818.35718	633.70728	343.91876	-863.98639	1575.05322	215.34146	-856.75964	1587.72009	255.29996	-865.89917	1435.29102	463.48901	-826.00641	964.86230	449.38861	-747.36768	964.72467	242.23453	-736.70306	31.63204	107.13799	-796.76495	1408.41687	296.66449	-967.83020	1283.11328	103.52686	-1114.39551	328.72192	264.78381	-884.07880	87.64191	153.74550	-663.47162	1114.93591	134.70918	-1257.68982	239.17603	225.22371	-930.63336	75.58705	213.25847	-952.34528	1127.67078	186.99786	-1291.80750	252.46017	108.13284	-1194.60828	116.43832	227.02765	-722.11188	1637.40076	129.62315	-955.07654	986.18939	297.10849	-972.17963	991.10638	-16.54157	-847.64581	1260.39148	-64.76948	-887.14819	1171.80945	8.48339	-796.11249	1112.09607	100.39079	-728.51019	1085.07874							282.13333	-824.70746	1676.33545																					 
34	0.330	97.15981	-838.92053	443.30212	325.35849	-813.24622	254.42516	516.14093	-869.86389	1030.52600	425.94339	-759.22009	1007.92352	70.10713	-838.90216	605.03333	342.62650	-741.54614	508.06866	542.58990	-939.20404	1110.83154	358.25006	-697.86530	1613.22986	114.29617	-710.09753	1134.95422	515.78210	-910.82263	1216.74890	245.28102	-717.99237	1156.49890	341.98932	-797.50299	938.13470	264.33893	-731.33978	1336.71704	416.38672	-797.84534	1365.21594	128.02884	-773.60913	923.13800	379.89639	-789.08386	623.28778	345.05334	-830.78790	1567.11682	216.24863	-824.31171	1579.84961	256.87494	-831.60529	1427.07764	460.96075	-773.95721	953.32544	445.76260	-696.13477	956.65448	241.67328	-736.33466	31.29054	106.40153	-764.27246	1400.47900	299.89407	-933.63647	1272.60657	101.32475	-1051.56201	324.69635	264.27826	-879.18921	85.41972	145.39784	-633.42981	1094.49756	131.23917	-1195.32056	236.24268	224.14796	-930.54828	74.98602	214.53346	-917.84680	1118.22107	183.05490	-1230.54565	249.07854	105.36990	-1129.52173	115.60099	227.30009	-690.13019	1631.58032	128.94502	-921.62958	978.12231	297.58160	-939.61121	983.38354	-16.74456	-821.12427	1253.49072	-63.05215	-862.09967	1165.99768	4.77424	-770.29999	1100.55151	94.00490	-701.27368	1068.44055							282.98163	-793.13049	1668.87292																					 
35	0.340	97.14771	-776.87280	440.01196	324.05899	-798.46582	249.43852	515.79279	-817.53986	1016.38586	421.76407	-709.85736	999.25397	69.10893	-788.10010	600.67041	343.63763	-716.92297	497.72766	545.90979	-888.15845	1093.69617	358.17410	-664.76569	1608.03015	108.16743	-680.07129	1118.11926	520.04626	-865.26257	1200.27307	245.02512	-683.12799	1148.78735	342.84180	-765.51068	928.55609	264.65207	-694.72009	1329.88977	418.98959	-759.85345	1356.17761	128.86543	-739.24390	915.89032	381.01291	-760.96167	612.79358	345.82361	-797.04059	1559.74988	216.98767	-791.52319	1572.35559	258.62140	-796.99078	1419.98169	457.14511	-721.20532	943.76917	440.95691	-644.58374	951.15845	241.46416	-736.79938	31.04168	105.59975	-731.39807	1392.97205	303.29971	-899.32544	1262.47681	98.96443	-985.81049	321.19876	262.93753	-879.28278	85.27804	134.98930	-603.96625	1072.87659	127.82887	-1130.93884	233.31334	222.96759	-930.62585	76.72779	216.29140	-883.66351	1109.05676	179.00261	-1167.34424	245.51378	103.00082	-1061.70447	115.07588	227.08873	-658.06775	1626.23816	128.72592	-888.89838	970.60638	298.09125	-907.37604	975.98975	-16.77355	-795.15137	1246.47217	-62.16328	-838.20636	1161.26270	0.56133	-745.83356	1088.85181	86.66917	-675.48004	1051.46191							283.35825	-761.37518	1661.90967																					 
36	0.350	97.27285	-714.41058	441.00146	324.16174	-790.58411	244.01208	514.56421	-763.65765	1005.25122	416.28589	-660.36475	993.98975	67.78320	-737.41608	600.66748	346.06802	-695.99591	487.60736	548.11310	-835.71686	1079.16650	357.78055	-631.37799	1603.66028	100.94506	-650.69531	1102.23633	523.20178	-818.98889	1186.32288	244.69028	-648.20697	1141.95117	343.70624	-734.78052	919.41681	264.49033	-658.98877	1323.76794	421.35266	-721.01575	1348.25818	128.90228	-705.96307	909.67902	382.04190	-736.70343	605.02020	346.40973	-763.12500	1553.35339	217.50110	-758.31854	1565.39136	260.32016	-761.33734	1414.79504	451.82278	-667.89655	937.44873	435.03131	-592.53894	949.33978	241.27013	-737.16547	30.77757	105.26287	-698.32062	1386.50879	307.31516	-864.35095	1255.08972	96.66319	-919.70691	318.72476	261.19376	-879.53693	85.69470	123.36536	-576.13745	1051.28687	124.55220	-1064.83398	230.24106	220.21129	-930.44562	78.23576	218.22902	-849.37311	1101.40393	175.05959	-1102.60583	241.47064	100.66382	-990.01691	115.78195	226.55756	-625.62256	1621.44373	129.07710	-856.33282	964.11597	298.28177	-875.37811	969.76459	-16.35931	-769.49835	1241.02197	-61.40385	-815.40771	1157.68176	-3.80207	-722.63202	1078.55310	78.60930	-651.25964	1035.34961							283.22580	-729.28088	1655.69446																					 
37	0.360	97.40252	-652.66699	446.24805	324.38654	-784.89630	239.37270	511.23553	-709.31610	998.81482	410.51456	-610.59979	993.91870	66.53443	-687.59930	602.94281	348.89886	-678.80054	478.53482	548.86670	-783.00671	1069.44983	357.06961	-597.46747	1600.12769	93.17267	-622.28748	1088.18188	524.27393	-772.54346	1178.00159	244.43233	-612.91840	1136.66650	343.24564	-701.89130	910.92853	264.11624	-623.55103	1319.19739	422.72699	-681.47302	1342.22339	128.42406	-672.62000	904.66113	383.85309	-716.17902	598.04541	346.61957	-728.48273	1547.87524	217.69635	-724.99542	1559.36768	262.08081	-725.46198	1411.10852	445.52820	-614.35474	936.39709	426.89612	-540.66589	952.41760	241.35568	-737.81580	30.62212	105.59416	-665.35889	1381.51172	311.82153	-828.68109	1251.04456	94.85988	-853.34302	317.99930	259.46204	-878.72437	85.36927	110.91301	-549.81573	1031.73889	121.56848	-997.30524	226.94254	217.80385	-930.00598	79.97733	220.82571	-815.11084	1097.52258	171.44054	-1036.59631	236.91795	98.51123	-918.04956	115.94663	225.64204	-592.76788	1617.29944	130.20667	-823.55457	959.58759	298.32498	-842.81024	965.11176	-14.35663	-743.75897	1239.40747	-58.95163	-792.19324	1155.73572	-7.98233	-700.18188	1071.45264	69.61503	-628.09241	1021.74091							282.64297	-696.69415	1650.35510																					 
